<mxfile host="app.diagrams.net" agent="Mozilla/5.0 (X11; Ubuntu; Linux x86_64; rv:139.0) Gecko/20100101 Firefox/139.0" version="27.1.5">
  <diagram name="Page-1" id="-qDwZxriLmxHvfeL5z6d">
    <mxGraphModel dx="1149" dy="645" grid="1" gridSize="10" guides="1" tooltips="1" connect="1" arrows="1" fold="1" page="1" pageScale="1" pageWidth="850" pageHeight="1100" math="0" shadow="0">
      <root>
        <mxCell id="0" />
        <mxCell id="1" parent="0" />
        <mxCell id="PMNKibyXnbzGqsMj5dXl-1" value="" style="rounded=0;whiteSpace=wrap;html=1;strokeColor=light-dark(#000000,#242424);dashed=1;dashPattern=1 4;movable=1;resizable=1;rotatable=1;deletable=1;editable=1;locked=0;connectable=1;fillColor=none;fontColor=light-dark(#000000,#1A1A1A);" parent="1" vertex="1">
          <mxGeometry x="362.5" y="40" width="227.5" height="500" as="geometry" />
        </mxCell>
        <mxCell id="PMNKibyXnbzGqsMj5dXl-2" value="" style="rounded=0;whiteSpace=wrap;html=1;fillColor=none;fontColor=light-dark(#000000,#1A1A1A);strokeColor=light-dark(#000000,#242424);" parent="1" vertex="1">
          <mxGeometry x="72.5" y="285" width="180" height="40" as="geometry" />
        </mxCell>
        <mxCell id="PMNKibyXnbzGqsMj5dXl-3" value="" style="rounded=0;whiteSpace=wrap;html=1;fillColor=none;fontColor=light-dark(#000000,#1A1A1A);strokeColor=light-dark(#000000,#242424);" parent="1" vertex="1">
          <mxGeometry x="152.5" y="285" width="180" height="40" as="geometry" />
        </mxCell>
        <mxCell id="PMNKibyXnbzGqsMj5dXl-4" value="" style="rounded=0;whiteSpace=wrap;html=1;strokeColor=light-dark(#000000,#242424);fillColor=none;fontColor=light-dark(#000000,#1A1A1A);" parent="1" vertex="1">
          <mxGeometry x="197.5" y="60" width="150" height="40" as="geometry" />
        </mxCell>
        <mxCell id="PMNKibyXnbzGqsMj5dXl-5" value="Adam" style="rounded=1;whiteSpace=wrap;html=1;fillColor=#0050ef;fontColor=light-dark(#000000,#1A1A1A);strokeColor=light-dark(#000000,#242424);" parent="1" vertex="1">
          <mxGeometry x="207.5" y="70" width="60" height="20" as="geometry" />
        </mxCell>
        <mxCell id="PMNKibyXnbzGqsMj5dXl-6" value="Eve" style="rounded=1;whiteSpace=wrap;html=1;fillColor=#6a00ff;fontColor=light-dark(#000000,#1A1A1A);strokeColor=light-dark(#000000,#242424);" parent="1" vertex="1">
          <mxGeometry x="277.5" y="70" width="60" height="20" as="geometry" />
        </mxCell>
        <mxCell id="PMNKibyXnbzGqsMj5dXl-7" value="&lt;div&gt;Cain&lt;/div&gt;" style="rounded=1;whiteSpace=wrap;html=1;fillColor=#0050ef;fontColor=light-dark(#000000,#1A1A1A);strokeColor=light-dark(#000000,#242424);" parent="1" vertex="1">
          <mxGeometry x="172.5" y="116" width="60" height="20" as="geometry" />
        </mxCell>
        <mxCell id="PMNKibyXnbzGqsMj5dXl-8" value="Abel" style="rounded=1;whiteSpace=wrap;html=1;fillColor=#0050ef;fontColor=light-dark(#000000,#1A1A1A);strokeColor=light-dark(#000000,#242424);glass=0;shadow=0;" parent="1" vertex="1">
          <mxGeometry x="242.5" y="116" width="60" height="20" as="geometry" />
        </mxCell>
        <mxCell id="PMNKibyXnbzGqsMj5dXl-9" value="" style="endArrow=none;dashed=1;html=1;rounded=0;entryX=0.75;entryY=1;entryDx=0;entryDy=0;exitX=0.5;exitY=0;exitDx=0;exitDy=0;strokeColor=light-dark(#000000,#242424);fontColor=light-dark(#000000,#1A1A1A);" parent="1" source="PMNKibyXnbzGqsMj5dXl-7" target="PMNKibyXnbzGqsMj5dXl-4" edge="1">
          <mxGeometry width="50" height="50" relative="1" as="geometry">
            <mxPoint x="262.5" y="180" as="sourcePoint" />
            <mxPoint x="312.5" y="130" as="targetPoint" />
          </mxGeometry>
        </mxCell>
        <mxCell id="PMNKibyXnbzGqsMj5dXl-10" value="" style="endArrow=none;dashed=1;html=1;rounded=0;entryX=0.732;entryY=0.99;entryDx=0;entryDy=0;exitX=0.5;exitY=0;exitDx=0;exitDy=0;entryPerimeter=0;strokeColor=light-dark(#000000,#242424);fontColor=light-dark(#000000,#1A1A1A);" parent="1" source="PMNKibyXnbzGqsMj5dXl-8" target="PMNKibyXnbzGqsMj5dXl-4" edge="1">
          <mxGeometry width="50" height="50" relative="1" as="geometry">
            <mxPoint x="262.5" y="180" as="sourcePoint" />
            <mxPoint x="312.5" y="130" as="targetPoint" />
          </mxGeometry>
        </mxCell>
        <mxCell id="PMNKibyXnbzGqsMj5dXl-11" value="Enoch" style="rounded=1;whiteSpace=wrap;html=1;fillColor=#0050ef;fontColor=light-dark(#000000,#1A1A1A);strokeColor=light-dark(#000000,#242424);" parent="1" vertex="1">
          <mxGeometry x="172.5" y="151" width="60" height="20" as="geometry" />
        </mxCell>
        <mxCell id="PMNKibyXnbzGqsMj5dXl-12" value="&lt;div&gt;Irad&lt;/div&gt;" style="rounded=1;whiteSpace=wrap;html=1;fillColor=#0050ef;fontColor=light-dark(#000000,#1A1A1A);strokeColor=light-dark(#000000,#242424);" parent="1" vertex="1">
          <mxGeometry x="172.5" y="186" width="60" height="20" as="geometry" />
        </mxCell>
        <mxCell id="PMNKibyXnbzGqsMj5dXl-13" value="Mehujael" style="rounded=1;whiteSpace=wrap;html=1;fillColor=#0050ef;fontColor=light-dark(#000000,#1A1A1A);strokeColor=light-dark(#000000,#242424);" parent="1" vertex="1">
          <mxGeometry x="172.5" y="220" width="60" height="20" as="geometry" />
        </mxCell>
        <mxCell id="PMNKibyXnbzGqsMj5dXl-14" value="&lt;div&gt;Methushael&lt;/div&gt;" style="rounded=1;whiteSpace=wrap;html=1;fillColor=#0050ef;fontColor=light-dark(#000000,#1A1A1A);strokeColor=light-dark(#000000,#242424);" parent="1" vertex="1">
          <mxGeometry x="162.5" y="254" width="80" height="20" as="geometry" />
        </mxCell>
        <mxCell id="PMNKibyXnbzGqsMj5dXl-15" value="Lamech" style="rounded=1;whiteSpace=wrap;html=1;fillColor=#0050ef;fontColor=light-dark(#000000,#1A1A1A);strokeColor=light-dark(#000000,#242424);" parent="1" vertex="1">
          <mxGeometry x="162.5" y="295" width="80" height="20" as="geometry" />
        </mxCell>
        <mxCell id="PMNKibyXnbzGqsMj5dXl-16" value="Adah" style="rounded=1;whiteSpace=wrap;html=1;fillColor=#6a00ff;fontColor=light-dark(#000000,#1A1A1A);strokeColor=light-dark(#000000,#242424);" parent="1" vertex="1">
          <mxGeometry x="262.5" y="295" width="60" height="20" as="geometry" />
        </mxCell>
        <mxCell id="PMNKibyXnbzGqsMj5dXl-17" value="Naamah" style="rounded=1;whiteSpace=wrap;html=1;fillColor=#6a00ff;fontColor=light-dark(#000000,#1A1A1A);strokeColor=light-dark(#000000,#242424);" parent="1" vertex="1">
          <mxGeometry x="125" y="340" width="60" height="20" as="geometry" />
        </mxCell>
        <mxCell id="PMNKibyXnbzGqsMj5dXl-18" value="" style="endArrow=none;dashed=1;html=1;rounded=0;entryX=0.5;entryY=1;entryDx=0;entryDy=0;exitX=0.5;exitY=0;exitDx=0;exitDy=0;strokeColor=light-dark(#000000,#242424);fontColor=light-dark(#000000,#1A1A1A);" parent="1" source="PMNKibyXnbzGqsMj5dXl-11" target="PMNKibyXnbzGqsMj5dXl-7" edge="1">
          <mxGeometry width="50" height="50" relative="1" as="geometry">
            <mxPoint x="192.5" y="220" as="sourcePoint" />
            <mxPoint x="232.5" y="280" as="targetPoint" />
          </mxGeometry>
        </mxCell>
        <mxCell id="PMNKibyXnbzGqsMj5dXl-19" value="" style="endArrow=none;dashed=1;html=1;rounded=0;entryX=0.5;entryY=1;entryDx=0;entryDy=0;exitX=0.5;exitY=0;exitDx=0;exitDy=0;strokeColor=light-dark(#000000,#242424);fontColor=light-dark(#000000,#1A1A1A);" parent="1" source="PMNKibyXnbzGqsMj5dXl-12" target="PMNKibyXnbzGqsMj5dXl-11" edge="1">
          <mxGeometry width="50" height="50" relative="1" as="geometry">
            <mxPoint x="182.5" y="330" as="sourcePoint" />
            <mxPoint x="232.5" y="280" as="targetPoint" />
          </mxGeometry>
        </mxCell>
        <mxCell id="PMNKibyXnbzGqsMj5dXl-20" value="" style="endArrow=none;dashed=1;html=1;rounded=0;entryX=0.5;entryY=0;entryDx=0;entryDy=0;exitX=0.5;exitY=1;exitDx=0;exitDy=0;strokeColor=light-dark(#000000,#242424);fontColor=light-dark(#000000,#1A1A1A);" parent="1" source="PMNKibyXnbzGqsMj5dXl-12" target="PMNKibyXnbzGqsMj5dXl-13" edge="1">
          <mxGeometry width="50" height="50" relative="1" as="geometry">
            <mxPoint x="182.5" y="330" as="sourcePoint" />
            <mxPoint x="232.5" y="280" as="targetPoint" />
          </mxGeometry>
        </mxCell>
        <mxCell id="PMNKibyXnbzGqsMj5dXl-21" value="" style="endArrow=none;dashed=1;html=1;rounded=0;exitX=0.5;exitY=1;exitDx=0;exitDy=0;entryX=0.5;entryY=0;entryDx=0;entryDy=0;strokeColor=light-dark(#000000,#242424);fontColor=light-dark(#000000,#1A1A1A);" parent="1" source="PMNKibyXnbzGqsMj5dXl-13" target="PMNKibyXnbzGqsMj5dXl-14" edge="1">
          <mxGeometry width="50" height="50" relative="1" as="geometry">
            <mxPoint x="182.5" y="330" as="sourcePoint" />
            <mxPoint x="232.5" y="280" as="targetPoint" />
          </mxGeometry>
        </mxCell>
        <mxCell id="PMNKibyXnbzGqsMj5dXl-22" value="" style="endArrow=none;dashed=1;html=1;rounded=0;exitX=0.5;exitY=1;exitDx=0;exitDy=0;entryX=0.5;entryY=0;entryDx=0;entryDy=0;strokeColor=light-dark(#000000,#242424);fontColor=light-dark(#000000,#1A1A1A);" parent="1" source="PMNKibyXnbzGqsMj5dXl-14" target="PMNKibyXnbzGqsMj5dXl-15" edge="1">
          <mxGeometry width="50" height="50" relative="1" as="geometry">
            <mxPoint x="182.5" y="330" as="sourcePoint" />
            <mxPoint x="232.5" y="280" as="targetPoint" />
          </mxGeometry>
        </mxCell>
        <mxCell id="PMNKibyXnbzGqsMj5dXl-23" value="Jabal" style="rounded=1;whiteSpace=wrap;html=1;fillColor=#0050ef;fontColor=light-dark(#000000,#1A1A1A);strokeColor=light-dark(#000000,#242424);" parent="1" vertex="1">
          <mxGeometry x="227.5" y="340" width="60" height="20" as="geometry" />
        </mxCell>
        <mxCell id="PMNKibyXnbzGqsMj5dXl-24" value="" style="endArrow=none;dashed=1;html=1;rounded=0;entryX=0.5;entryY=0;entryDx=0;entryDy=0;exitX=0.75;exitY=1;exitDx=0;exitDy=0;strokeColor=light-dark(#000000,#242424);fontColor=light-dark(#000000,#1A1A1A);" parent="1" source="PMNKibyXnbzGqsMj5dXl-3" target="PMNKibyXnbzGqsMj5dXl-23" edge="1">
          <mxGeometry width="50" height="50" relative="1" as="geometry">
            <mxPoint x="182.5" y="310" as="sourcePoint" />
            <mxPoint x="232.5" y="260" as="targetPoint" />
          </mxGeometry>
        </mxCell>
        <mxCell id="PMNKibyXnbzGqsMj5dXl-25" value="&lt;div&gt;Jubal&lt;/div&gt;" style="rounded=1;whiteSpace=wrap;html=1;fillColor=#0050ef;fontColor=light-dark(#000000,#1A1A1A);strokeColor=light-dark(#000000,#242424);" parent="1" vertex="1">
          <mxGeometry x="297.5" y="340" width="60" height="20" as="geometry" />
        </mxCell>
        <mxCell id="PMNKibyXnbzGqsMj5dXl-26" value="" style="endArrow=none;dashed=1;html=1;rounded=0;entryX=0.5;entryY=0;entryDx=0;entryDy=0;strokeColor=light-dark(#000000,#242424);fontColor=light-dark(#000000,#1A1A1A);exitX=0.75;exitY=1;exitDx=0;exitDy=0;" parent="1" target="PMNKibyXnbzGqsMj5dXl-25" edge="1" source="PMNKibyXnbzGqsMj5dXl-3">
          <mxGeometry width="50" height="50" relative="1" as="geometry">
            <mxPoint x="292.5" y="380" as="sourcePoint" />
            <mxPoint x="232.5" y="260" as="targetPoint" />
          </mxGeometry>
        </mxCell>
        <mxCell id="PMNKibyXnbzGqsMj5dXl-27" value="Tubal-Cain" style="rounded=1;whiteSpace=wrap;html=1;fillColor=#0050ef;fontColor=light-dark(#000000,#1A1A1A);strokeColor=light-dark(#000000,#242424);" parent="1" vertex="1">
          <mxGeometry x="40" y="340" width="75" height="20" as="geometry" />
        </mxCell>
        <mxCell id="PMNKibyXnbzGqsMj5dXl-28" value="Zillah" style="rounded=1;whiteSpace=wrap;html=1;fillColor=#6a00ff;fontColor=light-dark(#000000,#1A1A1A);strokeColor=light-dark(#000000,#242424);" parent="1" vertex="1">
          <mxGeometry x="82.5" y="295" width="60" height="20" as="geometry" />
        </mxCell>
        <mxCell id="PMNKibyXnbzGqsMj5dXl-29" value="" style="endArrow=none;dashed=1;html=1;rounded=0;entryX=0.5;entryY=0;entryDx=0;entryDy=0;exitX=0.25;exitY=1;exitDx=0;exitDy=0;strokeColor=light-dark(#000000,#242424);fontColor=light-dark(#000000,#1A1A1A);" parent="1" source="PMNKibyXnbzGqsMj5dXl-2" target="PMNKibyXnbzGqsMj5dXl-27" edge="1">
          <mxGeometry width="50" height="50" relative="1" as="geometry">
            <mxPoint x="182.5" y="310" as="sourcePoint" />
            <mxPoint x="232.5" y="260" as="targetPoint" />
          </mxGeometry>
        </mxCell>
        <mxCell id="PMNKibyXnbzGqsMj5dXl-30" value="" style="endArrow=none;dashed=1;html=1;rounded=0;exitX=0.25;exitY=1;exitDx=0;exitDy=0;entryX=0.5;entryY=0;entryDx=0;entryDy=0;strokeColor=light-dark(#000000,#242424);fontColor=light-dark(#000000,#1A1A1A);" parent="1" source="PMNKibyXnbzGqsMj5dXl-2" target="PMNKibyXnbzGqsMj5dXl-17" edge="1">
          <mxGeometry width="50" height="50" relative="1" as="geometry">
            <mxPoint x="182.5" y="310" as="sourcePoint" />
            <mxPoint x="232.5" y="260" as="targetPoint" />
          </mxGeometry>
        </mxCell>
        <mxCell id="PMNKibyXnbzGqsMj5dXl-31" value="Seth" style="rounded=1;whiteSpace=wrap;html=1;fillColor=#0050ef;fontColor=light-dark(#000000,#1A1A1A);strokeColor=light-dark(#000000,#242424);glass=0;shadow=0;" parent="1" vertex="1">
          <mxGeometry x="375" y="90" width="60" height="20" as="geometry" />
        </mxCell>
        <mxCell id="PMNKibyXnbzGqsMj5dXl-32" value="" style="endArrow=none;dashed=1;html=1;rounded=0;entryX=1;entryY=0.75;entryDx=0;entryDy=0;exitX=0;exitY=0.5;exitDx=0;exitDy=0;strokeColor=light-dark(#000000,#242424);fontColor=light-dark(#000000,#1A1A1A);" parent="1" source="PMNKibyXnbzGqsMj5dXl-31" target="PMNKibyXnbzGqsMj5dXl-4" edge="1">
          <mxGeometry width="50" height="50" relative="1" as="geometry">
            <mxPoint x="282.5" y="140" as="sourcePoint" />
            <mxPoint x="347.5" y="120" as="targetPoint" />
          </mxGeometry>
        </mxCell>
        <mxCell id="PMNKibyXnbzGqsMj5dXl-33" value="Enosh" style="rounded=1;whiteSpace=wrap;html=1;fillColor=#0050ef;fontColor=light-dark(#000000,#1A1A1A);strokeColor=light-dark(#000000,#242424);glass=0;shadow=0;" parent="1" vertex="1">
          <mxGeometry x="375" y="124" width="60" height="20" as="geometry" />
        </mxCell>
        <mxCell id="PMNKibyXnbzGqsMj5dXl-34" value="" style="endArrow=none;dashed=1;html=1;rounded=0;entryX=0.5;entryY=1;entryDx=0;entryDy=0;exitX=0.5;exitY=0;exitDx=0;exitDy=0;strokeColor=light-dark(#000000,#242424);fontColor=light-dark(#000000,#1A1A1A);" parent="1" source="PMNKibyXnbzGqsMj5dXl-33" target="PMNKibyXnbzGqsMj5dXl-31" edge="1">
          <mxGeometry width="50" height="50" relative="1" as="geometry">
            <mxPoint x="282.5" y="140" as="sourcePoint" />
            <mxPoint x="339.5" y="110" as="targetPoint" />
          </mxGeometry>
        </mxCell>
        <mxCell id="PMNKibyXnbzGqsMj5dXl-35" value="&lt;b&gt;&lt;font style=&quot;font-size: 14px;&quot;&gt;YEAR&lt;/font&gt;&lt;/b&gt;" style="text;html=1;align=center;verticalAlign=middle;whiteSpace=wrap;rounded=0;strokeColor=light-dark(#000000,#242424);fontColor=light-dark(#000000,#212121);" parent="1" vertex="1">
          <mxGeometry x="442.5" y="50" width="60" height="20" as="geometry" />
        </mxCell>
        <mxCell id="PMNKibyXnbzGqsMj5dXl-36" value="0" style="text;html=1;align=center;verticalAlign=middle;whiteSpace=wrap;rounded=0;strokeColor=none;fontColor=light-dark(#000000,#212121);" parent="1" vertex="1">
          <mxGeometry x="452.5" y="75" width="40" height="20" as="geometry" />
        </mxCell>
        <mxCell id="PMNKibyXnbzGqsMj5dXl-37" value="130" style="text;html=1;align=center;verticalAlign=middle;whiteSpace=wrap;rounded=0;strokeColor=none;fontColor=light-dark(#000000,#212121);" parent="1" vertex="1">
          <mxGeometry x="452.5" y="91" width="40" height="20" as="geometry" />
        </mxCell>
        <mxCell id="PMNKibyXnbzGqsMj5dXl-38" value="&lt;div&gt;235&lt;/div&gt;" style="text;html=1;align=center;verticalAlign=middle;whiteSpace=wrap;rounded=0;strokeColor=none;fontColor=light-dark(#000000,#212121);" parent="1" vertex="1">
          <mxGeometry x="452.5" y="124" width="40" height="20" as="geometry" />
        </mxCell>
        <mxCell id="PMNKibyXnbzGqsMj5dXl-39" value="Cainan" style="rounded=1;whiteSpace=wrap;html=1;fillColor=#0050ef;fontColor=light-dark(#000000,#1A1A1A);strokeColor=light-dark(#000000,#242424);glass=0;shadow=0;" parent="1" vertex="1">
          <mxGeometry x="375" y="158" width="60" height="20" as="geometry" />
        </mxCell>
        <mxCell id="PMNKibyXnbzGqsMj5dXl-40" value="" style="endArrow=none;dashed=1;html=1;rounded=0;exitX=0.5;exitY=0;exitDx=0;exitDy=0;strokeColor=light-dark(#000000,#242424);entryX=0.5;entryY=1;entryDx=0;entryDy=0;fontColor=light-dark(#000000,#1A1A1A);" parent="1" source="PMNKibyXnbzGqsMj5dXl-39" target="PMNKibyXnbzGqsMj5dXl-33" edge="1">
          <mxGeometry width="50" height="50" relative="1" as="geometry">
            <mxPoint x="282.5" y="180" as="sourcePoint" />
            <mxPoint x="397.5" y="160" as="targetPoint" />
          </mxGeometry>
        </mxCell>
        <mxCell id="PMNKibyXnbzGqsMj5dXl-41" value="&lt;div&gt;325&lt;/div&gt;" style="text;html=1;align=center;verticalAlign=middle;whiteSpace=wrap;rounded=0;strokeColor=none;fontColor=light-dark(#000000,#212121);" parent="1" vertex="1">
          <mxGeometry x="452.5" y="159" width="40" height="20" as="geometry" />
        </mxCell>
        <mxCell id="PMNKibyXnbzGqsMj5dXl-42" value="Mahalalel" style="rounded=1;whiteSpace=wrap;html=1;fillColor=#0050ef;fontColor=light-dark(#000000,#1A1A1A);strokeColor=light-dark(#000000,#242424);glass=0;shadow=0;" parent="1" vertex="1">
          <mxGeometry x="372.5" y="192" width="65" height="20" as="geometry" />
        </mxCell>
        <mxCell id="PMNKibyXnbzGqsMj5dXl-43" value="" style="endArrow=none;dashed=1;html=1;rounded=0;exitX=0.5;exitY=0;exitDx=0;exitDy=0;strokeColor=light-dark(#000000,#242424);entryX=0.5;entryY=1;entryDx=0;entryDy=0;fontColor=light-dark(#000000,#1A1A1A);" parent="1" source="PMNKibyXnbzGqsMj5dXl-42" target="PMNKibyXnbzGqsMj5dXl-39" edge="1">
          <mxGeometry width="50" height="50" relative="1" as="geometry">
            <mxPoint x="282.5" y="220" as="sourcePoint" />
            <mxPoint x="397.5" y="200" as="targetPoint" />
          </mxGeometry>
        </mxCell>
        <mxCell id="PMNKibyXnbzGqsMj5dXl-44" value="&lt;div&gt;395&lt;/div&gt;" style="text;html=1;align=center;verticalAlign=middle;whiteSpace=wrap;rounded=0;strokeColor=none;fontColor=light-dark(#000000,#212121);" parent="1" vertex="1">
          <mxGeometry x="452.5" y="192" width="40" height="20" as="geometry" />
        </mxCell>
        <mxCell id="PMNKibyXnbzGqsMj5dXl-45" value="Jared" style="rounded=1;whiteSpace=wrap;html=1;fillColor=#0050ef;fontColor=light-dark(#000000,#1A1A1A);strokeColor=light-dark(#000000,#242424);glass=0;shadow=0;" parent="1" vertex="1">
          <mxGeometry x="375" y="226" width="60" height="20" as="geometry" />
        </mxCell>
        <mxCell id="PMNKibyXnbzGqsMj5dXl-46" value="" style="endArrow=none;dashed=1;html=1;rounded=0;exitX=0.5;exitY=0;exitDx=0;exitDy=0;strokeColor=light-dark(#000000,#242424);entryX=0.5;entryY=1;entryDx=0;entryDy=0;fontColor=light-dark(#000000,#1A1A1A);" parent="1" source="PMNKibyXnbzGqsMj5dXl-45" target="PMNKibyXnbzGqsMj5dXl-42" edge="1">
          <mxGeometry width="50" height="50" relative="1" as="geometry">
            <mxPoint x="282.5" y="260" as="sourcePoint" />
            <mxPoint x="397.5" y="240" as="targetPoint" />
          </mxGeometry>
        </mxCell>
        <mxCell id="PMNKibyXnbzGqsMj5dXl-47" value="460" style="text;html=1;align=center;verticalAlign=middle;whiteSpace=wrap;rounded=0;strokeColor=none;fontColor=light-dark(#000000,#212121);" parent="1" vertex="1">
          <mxGeometry x="452.5" y="227" width="40" height="20" as="geometry" />
        </mxCell>
        <mxCell id="PMNKibyXnbzGqsMj5dXl-48" value="Enoch" style="rounded=1;whiteSpace=wrap;html=1;fillColor=#0050ef;fontColor=light-dark(#000000,#1A1A1A);strokeColor=light-dark(#000000,#242424);glass=0;shadow=0;" parent="1" vertex="1">
          <mxGeometry x="375" y="260" width="60" height="20" as="geometry" />
        </mxCell>
        <mxCell id="PMNKibyXnbzGqsMj5dXl-49" value="" style="endArrow=none;dashed=1;html=1;rounded=0;exitX=0.5;exitY=0;exitDx=0;exitDy=0;strokeColor=light-dark(#000000,#242424);entryX=0.5;entryY=1;entryDx=0;entryDy=0;fontColor=light-dark(#000000,#1A1A1A);" parent="1" source="PMNKibyXnbzGqsMj5dXl-48" target="PMNKibyXnbzGqsMj5dXl-45" edge="1">
          <mxGeometry width="50" height="50" relative="1" as="geometry">
            <mxPoint x="282.5" y="300" as="sourcePoint" />
            <mxPoint x="397.5" y="280" as="targetPoint" />
          </mxGeometry>
        </mxCell>
        <mxCell id="PMNKibyXnbzGqsMj5dXl-50" value="622" style="text;html=1;align=center;verticalAlign=middle;whiteSpace=wrap;rounded=0;strokeColor=none;fontColor=light-dark(#000000,#212121);" parent="1" vertex="1">
          <mxGeometry x="452.5" y="260" width="40" height="20" as="geometry" />
        </mxCell>
        <mxCell id="PMNKibyXnbzGqsMj5dXl-51" value="Methuselah" style="rounded=1;whiteSpace=wrap;html=1;fillColor=#0050ef;fontColor=light-dark(#000000,#1A1A1A);strokeColor=light-dark(#000000,#242424);glass=0;shadow=0;" parent="1" vertex="1">
          <mxGeometry x="367.5" y="295" width="75" height="20" as="geometry" />
        </mxCell>
        <mxCell id="PMNKibyXnbzGqsMj5dXl-52" value="" style="endArrow=none;dashed=1;html=1;rounded=0;exitX=0.5;exitY=0;exitDx=0;exitDy=0;strokeColor=light-dark(#000000,#242424);entryX=0.5;entryY=1;entryDx=0;entryDy=0;fontColor=light-dark(#000000,#1A1A1A);" parent="1" source="PMNKibyXnbzGqsMj5dXl-51" target="PMNKibyXnbzGqsMj5dXl-48" edge="1">
          <mxGeometry width="50" height="50" relative="1" as="geometry">
            <mxPoint x="282.5" y="340" as="sourcePoint" />
            <mxPoint x="397.5" y="320" as="targetPoint" />
          </mxGeometry>
        </mxCell>
        <mxCell id="PMNKibyXnbzGqsMj5dXl-53" value="687" style="text;html=1;align=center;verticalAlign=middle;whiteSpace=wrap;rounded=0;strokeColor=none;fontColor=light-dark(#000000,#212121);" parent="1" vertex="1">
          <mxGeometry x="452.5" y="296" width="40" height="20" as="geometry" />
        </mxCell>
        <mxCell id="PMNKibyXnbzGqsMj5dXl-54" value="Lamech" style="rounded=1;whiteSpace=wrap;html=1;fillColor=#0050ef;fontColor=light-dark(#000000,#1A1A1A);strokeColor=light-dark(#000000,#242424);glass=0;shadow=0;" parent="1" vertex="1">
          <mxGeometry x="375" y="330" width="60" height="20" as="geometry" />
        </mxCell>
        <mxCell id="PMNKibyXnbzGqsMj5dXl-55" value="" style="endArrow=none;dashed=1;html=1;rounded=0;exitX=0.5;exitY=0;exitDx=0;exitDy=0;strokeColor=light-dark(#000000,#242424);entryX=0.5;entryY=1;entryDx=0;entryDy=0;fontColor=light-dark(#000000,#1A1A1A);" parent="1" source="PMNKibyXnbzGqsMj5dXl-54" target="PMNKibyXnbzGqsMj5dXl-51" edge="1">
          <mxGeometry width="50" height="50" relative="1" as="geometry">
            <mxPoint x="282.5" y="380" as="sourcePoint" />
            <mxPoint x="397.5" y="360" as="targetPoint" />
          </mxGeometry>
        </mxCell>
        <mxCell id="PMNKibyXnbzGqsMj5dXl-56" value="874" style="text;html=1;align=center;verticalAlign=middle;whiteSpace=wrap;rounded=0;strokeColor=none;fontColor=light-dark(#000000,#212121);" parent="1" vertex="1">
          <mxGeometry x="452.5" y="330" width="40" height="20" as="geometry" />
        </mxCell>
        <mxCell id="PMNKibyXnbzGqsMj5dXl-57" value="Noah" style="rounded=1;whiteSpace=wrap;html=1;fillColor=#0050ef;fontColor=light-dark(#000000,#1A1A1A);strokeColor=light-dark(#000000,#242424);glass=0;shadow=0;" parent="1" vertex="1">
          <mxGeometry x="375" y="365" width="60" height="20" as="geometry" />
        </mxCell>
        <mxCell id="PMNKibyXnbzGqsMj5dXl-58" value="" style="endArrow=none;dashed=1;html=1;rounded=0;exitX=0.5;exitY=0;exitDx=0;exitDy=0;strokeColor=light-dark(#000000,#242424);entryX=0.5;entryY=1;entryDx=0;entryDy=0;fontColor=light-dark(#000000,#1A1A1A);" parent="1" source="PMNKibyXnbzGqsMj5dXl-57" target="PMNKibyXnbzGqsMj5dXl-54" edge="1">
          <mxGeometry width="50" height="50" relative="1" as="geometry">
            <mxPoint x="282.5" y="420" as="sourcePoint" />
            <mxPoint x="405.5" y="400" as="targetPoint" />
          </mxGeometry>
        </mxCell>
        <mxCell id="PMNKibyXnbzGqsMj5dXl-59" value="1056" style="text;html=1;align=center;verticalAlign=middle;whiteSpace=wrap;rounded=0;strokeColor=none;fontColor=light-dark(#000000,#212121);" parent="1" vertex="1">
          <mxGeometry x="452.5" y="383" width="40" height="20" as="geometry" />
        </mxCell>
        <mxCell id="PMNKibyXnbzGqsMj5dXl-60" value="930" style="text;html=1;align=center;verticalAlign=middle;whiteSpace=wrap;rounded=0;strokeColor=none;fontColor=light-dark(#000000,#212121);" parent="1" vertex="1">
          <mxGeometry x="452.5" y="345" width="40" height="20" as="geometry" />
        </mxCell>
        <mxCell id="PMNKibyXnbzGqsMj5dXl-61" value="&lt;div style=&quot;line-height: 100%;&quot;&gt;&lt;div align=&quot;center&quot; style=&quot;line-height: 120%;&quot;&gt;&lt;font style=&quot;line-height: 120%;&quot;&gt;Adam&lt;br&gt;&lt;/font&gt;&lt;/div&gt;&lt;/div&gt;" style="rounded=1;whiteSpace=wrap;html=1;fillColor=#e51400;fontColor=light-dark(#000000,#1A1A1A);strokeColor=light-dark(#000000,#242424);align=center;" parent="1" vertex="1">
          <mxGeometry x="512.5" y="339" width="50" height="19" as="geometry" />
        </mxCell>
        <mxCell id="PMNKibyXnbzGqsMj5dXl-62" value="" style="endArrow=classic;html=1;rounded=0;exitX=1;exitY=0.5;exitDx=0;exitDy=0;strokeColor=light-dark(#000000,#242424);fontColor=light-dark(#000000,#E8E8E8);" parent="1" source="PMNKibyXnbzGqsMj5dXl-45" target="PMNKibyXnbzGqsMj5dXl-47" edge="1">
          <mxGeometry width="50" height="50" relative="1" as="geometry">
            <mxPoint x="342.5" y="270" as="sourcePoint" />
            <mxPoint x="392.5" y="220" as="targetPoint" />
          </mxGeometry>
        </mxCell>
        <mxCell id="PMNKibyXnbzGqsMj5dXl-63" value="" style="endArrow=classic;html=1;rounded=0;exitX=1;exitY=0.5;exitDx=0;exitDy=0;entryX=0;entryY=0.5;entryDx=0;entryDy=0;strokeColor=light-dark(#000000,#242424);fontColor=light-dark(#000000,#E8E8E8);" parent="1" source="PMNKibyXnbzGqsMj5dXl-42" target="PMNKibyXnbzGqsMj5dXl-44" edge="1">
          <mxGeometry width="50" height="50" relative="1" as="geometry">
            <mxPoint x="342.5" y="270" as="sourcePoint" />
            <mxPoint x="392.5" y="220" as="targetPoint" />
          </mxGeometry>
        </mxCell>
        <mxCell id="PMNKibyXnbzGqsMj5dXl-64" value="" style="endArrow=classic;html=1;rounded=0;entryX=0;entryY=0.5;entryDx=0;entryDy=0;exitX=1;exitY=0.5;exitDx=0;exitDy=0;strokeColor=light-dark(#000000,#242424);fontColor=light-dark(#000000,#E8E8E8);" parent="1" source="PMNKibyXnbzGqsMj5dXl-39" target="PMNKibyXnbzGqsMj5dXl-41" edge="1">
          <mxGeometry width="50" height="50" relative="1" as="geometry">
            <mxPoint x="342.5" y="270" as="sourcePoint" />
            <mxPoint x="392.5" y="220" as="targetPoint" />
          </mxGeometry>
        </mxCell>
        <mxCell id="PMNKibyXnbzGqsMj5dXl-65" value="" style="endArrow=classic;html=1;rounded=0;entryX=0;entryY=0.5;entryDx=0;entryDy=0;exitX=1;exitY=0.5;exitDx=0;exitDy=0;strokeColor=light-dark(#000000,#242424);fontColor=light-dark(#000000,#E8E8E8);" parent="1" source="PMNKibyXnbzGqsMj5dXl-33" target="PMNKibyXnbzGqsMj5dXl-38" edge="1">
          <mxGeometry width="50" height="50" relative="1" as="geometry">
            <mxPoint x="342.5" y="270" as="sourcePoint" />
            <mxPoint x="392.5" y="220" as="targetPoint" />
          </mxGeometry>
        </mxCell>
        <mxCell id="PMNKibyXnbzGqsMj5dXl-66" value="" style="endArrow=classic;html=1;rounded=0;entryX=0;entryY=0.5;entryDx=0;entryDy=0;exitX=1;exitY=0.5;exitDx=0;exitDy=0;strokeColor=light-dark(#000000,#242424);fontColor=light-dark(#000000,#E8E8E8);" parent="1" source="PMNKibyXnbzGqsMj5dXl-31" target="PMNKibyXnbzGqsMj5dXl-37" edge="1">
          <mxGeometry width="50" height="50" relative="1" as="geometry">
            <mxPoint x="342.5" y="270" as="sourcePoint" />
            <mxPoint x="392.5" y="220" as="targetPoint" />
          </mxGeometry>
        </mxCell>
        <mxCell id="PMNKibyXnbzGqsMj5dXl-67" value="" style="endArrow=classic;html=1;rounded=0;entryX=0;entryY=0.5;entryDx=0;entryDy=0;exitX=1;exitY=0.5;exitDx=0;exitDy=0;strokeColor=light-dark(#000000,#242424);fontColor=light-dark(#000000,#E8E8E8);" parent="1" source="PMNKibyXnbzGqsMj5dXl-57" target="PMNKibyXnbzGqsMj5dXl-59" edge="1">
          <mxGeometry width="50" height="50" relative="1" as="geometry">
            <mxPoint x="342.5" y="282" as="sourcePoint" />
            <mxPoint x="392.5" y="232" as="targetPoint" />
          </mxGeometry>
        </mxCell>
        <mxCell id="PMNKibyXnbzGqsMj5dXl-68" value="" style="endArrow=classic;html=1;rounded=0;entryX=0;entryY=0.5;entryDx=0;entryDy=0;exitX=1;exitY=0.5;exitDx=0;exitDy=0;strokeColor=light-dark(#000000,#242424);fontColor=light-dark(#000000,#E8E8E8);" parent="1" source="PMNKibyXnbzGqsMj5dXl-48" target="PMNKibyXnbzGqsMj5dXl-50" edge="1">
          <mxGeometry width="50" height="50" relative="1" as="geometry">
            <mxPoint x="372.5" y="350" as="sourcePoint" />
            <mxPoint x="422.5" y="300" as="targetPoint" />
          </mxGeometry>
        </mxCell>
        <mxCell id="PMNKibyXnbzGqsMj5dXl-69" value="" style="endArrow=classic;html=1;rounded=0;entryX=0;entryY=0.5;entryDx=0;entryDy=0;exitX=1;exitY=0.5;exitDx=0;exitDy=0;strokeColor=light-dark(#000000,#242424);fontColor=light-dark(#000000,#E8E8E8);" parent="1" source="PMNKibyXnbzGqsMj5dXl-54" target="PMNKibyXnbzGqsMj5dXl-56" edge="1">
          <mxGeometry width="50" height="50" relative="1" as="geometry">
            <mxPoint x="372.5" y="350" as="sourcePoint" />
            <mxPoint x="422.5" y="300" as="targetPoint" />
          </mxGeometry>
        </mxCell>
        <mxCell id="PMNKibyXnbzGqsMj5dXl-70" value="" style="endArrow=classic;html=1;rounded=0;entryX=1;entryY=0.5;entryDx=0;entryDy=0;exitX=0;exitY=0.5;exitDx=0;exitDy=0;strokeColor=light-dark(#000000,#242424);fontColor=light-dark(#000000,#E8E8E8);" parent="1" source="PMNKibyXnbzGqsMj5dXl-61" target="PMNKibyXnbzGqsMj5dXl-60" edge="1">
          <mxGeometry width="50" height="50" relative="1" as="geometry">
            <mxPoint x="372.5" y="306" as="sourcePoint" />
            <mxPoint x="422.5" y="256" as="targetPoint" />
          </mxGeometry>
        </mxCell>
        <mxCell id="PMNKibyXnbzGqsMj5dXl-71" value="" style="endArrow=classic;html=1;rounded=0;exitX=1;exitY=0.5;exitDx=0;exitDy=0;entryX=0;entryY=0.5;entryDx=0;entryDy=0;strokeColor=light-dark(#000000,#242424);fontColor=light-dark(#000000,#1A1A1A);" parent="1" source="PMNKibyXnbzGqsMj5dXl-4" target="PMNKibyXnbzGqsMj5dXl-36" edge="1">
          <mxGeometry width="50" height="50" relative="1" as="geometry">
            <mxPoint x="312.5" y="260" as="sourcePoint" />
            <mxPoint x="362.5" y="210" as="targetPoint" />
          </mxGeometry>
        </mxCell>
        <mxCell id="PMNKibyXnbzGqsMj5dXl-72" value="1042" style="text;html=1;align=center;verticalAlign=middle;whiteSpace=wrap;rounded=0;strokeColor=none;fontColor=light-dark(#000000,#212121);" parent="1" vertex="1">
          <mxGeometry x="452.5" y="370" width="40" height="20" as="geometry" />
        </mxCell>
        <mxCell id="PMNKibyXnbzGqsMj5dXl-73" value="&lt;div style=&quot;line-height: 100%;&quot;&gt;&lt;div align=&quot;center&quot; style=&quot;line-height: 120%;&quot;&gt;&lt;font style=&quot;line-height: 120%;&quot;&gt;Seth&lt;br&gt;&lt;/font&gt;&lt;/div&gt;&lt;/div&gt;" style="rounded=1;whiteSpace=wrap;html=1;fillColor=#e51400;fontColor=light-dark(#000000,#1A1A1A);strokeColor=light-dark(#000000,#242424);align=center;" parent="1" vertex="1">
          <mxGeometry x="512.5" y="378" width="50" height="20" as="geometry" />
        </mxCell>
        <mxCell id="PMNKibyXnbzGqsMj5dXl-74" value="" style="endArrow=classic;html=1;rounded=0;entryX=1;entryY=0.5;entryDx=0;entryDy=0;exitX=0;exitY=0.5;exitDx=0;exitDy=0;strokeColor=light-dark(#000000,#242424);fontColor=light-dark(#000000,#E8E8E8);" parent="1" source="PMNKibyXnbzGqsMj5dXl-73" target="PMNKibyXnbzGqsMj5dXl-72" edge="1">
          <mxGeometry width="50" height="50" relative="1" as="geometry">
            <mxPoint x="522.5" y="369" as="sourcePoint" />
            <mxPoint x="502.5" y="377" as="targetPoint" />
          </mxGeometry>
        </mxCell>
        <mxCell id="PMNKibyXnbzGqsMj5dXl-75" value="&lt;b&gt;DEATHS&lt;/b&gt;" style="text;html=1;align=center;verticalAlign=middle;whiteSpace=wrap;rounded=0;strokeColor=light-dark(#000000,#242424);fontColor=light-dark(#000000,#212121);" parent="1" vertex="1">
          <mxGeometry x="512.5" y="50" width="60" height="20" as="geometry" />
        </mxCell>
        <mxCell id="PMNKibyXnbzGqsMj5dXl-76" value="Enosh" style="rounded=1;whiteSpace=wrap;html=1;fillColor=#e51400;strokeColor=light-dark(#000000,#242424);align=center;fontColor=#ffffff;" parent="1" vertex="1">
          <mxGeometry x="512.5" y="398" width="50" height="20" as="geometry" />
        </mxCell>
        <mxCell id="PMNKibyXnbzGqsMj5dXl-77" value="1140" style="text;html=1;align=center;verticalAlign=middle;whiteSpace=wrap;rounded=0;strokeColor=none;fontColor=light-dark(#000000,#212121);" parent="1" vertex="1">
          <mxGeometry x="452.5" y="398" width="40" height="20" as="geometry" />
        </mxCell>
        <mxCell id="PMNKibyXnbzGqsMj5dXl-78" value="" style="endArrow=classic;html=1;rounded=0;entryX=1;entryY=0.5;entryDx=0;entryDy=0;exitX=0;exitY=0.5;exitDx=0;exitDy=0;strokeColor=light-dark(#000000,#242424);fontColor=light-dark(#000000,#E8E8E8);" parent="1" source="PMNKibyXnbzGqsMj5dXl-76" target="PMNKibyXnbzGqsMj5dXl-77" edge="1">
          <mxGeometry width="50" height="50" relative="1" as="geometry">
            <mxPoint x="522.5" y="376" as="sourcePoint" />
            <mxPoint x="502.5" y="377" as="targetPoint" />
          </mxGeometry>
        </mxCell>
        <mxCell id="PMNKibyXnbzGqsMj5dXl-79" value="Cainan" style="rounded=1;whiteSpace=wrap;html=1;fillColor=#e51400;fontColor=light-dark(#000000,#1A1A1A);strokeColor=light-dark(#000000,#242424);align=center;" parent="1" vertex="1">
          <mxGeometry x="512.5" y="418" width="50" height="20" as="geometry" />
        </mxCell>
        <mxCell id="PMNKibyXnbzGqsMj5dXl-80" value="1235" style="text;html=1;align=center;verticalAlign=middle;whiteSpace=wrap;rounded=0;strokeColor=none;fontColor=light-dark(#000000,#212121);" parent="1" vertex="1">
          <mxGeometry x="452.5" y="418" width="40" height="20" as="geometry" />
        </mxCell>
        <mxCell id="PMNKibyXnbzGqsMj5dXl-81" value="" style="endArrow=classic;html=1;rounded=0;entryX=1;entryY=0.5;entryDx=0;entryDy=0;exitX=0;exitY=0.5;exitDx=0;exitDy=0;strokeColor=light-dark(#000000,#242424);fontColor=light-dark(#000000,#E8E8E8);" parent="1" source="PMNKibyXnbzGqsMj5dXl-79" target="PMNKibyXnbzGqsMj5dXl-80" edge="1">
          <mxGeometry width="50" height="50" relative="1" as="geometry">
            <mxPoint x="522.5" y="396" as="sourcePoint" />
            <mxPoint x="502.5" y="397" as="targetPoint" />
          </mxGeometry>
        </mxCell>
        <mxCell id="PMNKibyXnbzGqsMj5dXl-82" value="Mahalalel" style="rounded=1;whiteSpace=wrap;html=1;fillColor=#e51400;fontColor=light-dark(#000000,#1A1A1A);strokeColor=light-dark(#000000,#242424);align=center;" parent="1" vertex="1">
          <mxGeometry x="512.5" y="438" width="60" height="20" as="geometry" />
        </mxCell>
        <mxCell id="PMNKibyXnbzGqsMj5dXl-83" value="&lt;div&gt;1290&lt;/div&gt;" style="text;html=1;align=center;verticalAlign=middle;whiteSpace=wrap;rounded=0;strokeColor=none;fontColor=light-dark(#000000,#212121);" parent="1" vertex="1">
          <mxGeometry x="452.5" y="438" width="40" height="20" as="geometry" />
        </mxCell>
        <mxCell id="PMNKibyXnbzGqsMj5dXl-84" value="" style="endArrow=classic;html=1;rounded=0;entryX=1;entryY=0.5;entryDx=0;entryDy=0;exitX=0;exitY=0.5;exitDx=0;exitDy=0;strokeColor=light-dark(#000000,#242424);fontColor=light-dark(#000000,#E8E8E8);" parent="1" source="PMNKibyXnbzGqsMj5dXl-82" target="PMNKibyXnbzGqsMj5dXl-83" edge="1">
          <mxGeometry width="50" height="50" relative="1" as="geometry">
            <mxPoint x="522.5" y="416" as="sourcePoint" />
            <mxPoint x="502.5" y="417" as="targetPoint" />
          </mxGeometry>
        </mxCell>
        <mxCell id="PMNKibyXnbzGqsMj5dXl-85" value="Jared" style="rounded=1;whiteSpace=wrap;html=1;fillColor=#e51400;fontColor=light-dark(#000000,#1A1A1A);strokeColor=light-dark(#000000,#242424);align=center;" parent="1" vertex="1">
          <mxGeometry x="512.5" y="458" width="50" height="20" as="geometry" />
        </mxCell>
        <mxCell id="PMNKibyXnbzGqsMj5dXl-86" value="1422" style="text;html=1;align=center;verticalAlign=middle;whiteSpace=wrap;rounded=0;strokeColor=none;fontColor=light-dark(#000000,#212121);" parent="1" vertex="1">
          <mxGeometry x="452.5" y="458" width="40" height="20" as="geometry" />
        </mxCell>
        <mxCell id="PMNKibyXnbzGqsMj5dXl-87" value="" style="endArrow=classic;html=1;rounded=0;entryX=1;entryY=0.5;entryDx=0;entryDy=0;exitX=0;exitY=0.5;exitDx=0;exitDy=0;strokeColor=light-dark(#000000,#242424);fontColor=light-dark(#000000,#E8E8E8);" parent="1" source="PMNKibyXnbzGqsMj5dXl-85" target="PMNKibyXnbzGqsMj5dXl-86" edge="1">
          <mxGeometry width="50" height="50" relative="1" as="geometry">
            <mxPoint x="522.5" y="436" as="sourcePoint" />
            <mxPoint x="502.5" y="437" as="targetPoint" />
          </mxGeometry>
        </mxCell>
        <mxCell id="PMNKibyXnbzGqsMj5dXl-88" value="Enoch" style="rounded=1;whiteSpace=wrap;html=1;fillColor=light-dark(#E51400,#FFDA2A);fontColor=light-dark(#000000,#1A1A1A);strokeColor=light-dark(#000000,#242424);align=center;" parent="1" vertex="1">
          <mxGeometry x="512.5" y="358" width="50" height="20" as="geometry" />
        </mxCell>
        <mxCell id="PMNKibyXnbzGqsMj5dXl-89" value="987" style="text;html=1;align=center;verticalAlign=middle;whiteSpace=wrap;rounded=0;strokeColor=none;fontColor=light-dark(#000000,#212121);" parent="1" vertex="1">
          <mxGeometry x="452.5" y="358" width="40" height="20" as="geometry" />
        </mxCell>
        <mxCell id="PMNKibyXnbzGqsMj5dXl-90" value="" style="endArrow=classic;html=1;rounded=0;entryX=1;entryY=0.5;entryDx=0;entryDy=0;exitX=0;exitY=0.5;exitDx=0;exitDy=0;strokeColor=light-dark(#000000,#242424);fontColor=light-dark(#000000,#E8E8E8);" parent="1" source="PMNKibyXnbzGqsMj5dXl-88" target="PMNKibyXnbzGqsMj5dXl-89" edge="1">
          <mxGeometry width="50" height="50" relative="1" as="geometry">
            <mxPoint x="522.5" y="336" as="sourcePoint" />
            <mxPoint x="502.5" y="337" as="targetPoint" />
          </mxGeometry>
        </mxCell>
        <mxCell id="PMNKibyXnbzGqsMj5dXl-91" value="Ham" style="rounded=1;whiteSpace=wrap;html=1;fillColor=#0050ef;fontColor=light-dark(#000000,#1A1A1A);strokeColor=light-dark(#000000,#242424);glass=0;shadow=0;" parent="1" vertex="1">
          <mxGeometry x="330.5" y="476" width="45" height="23" as="geometry" />
        </mxCell>
        <mxCell id="PMNKibyXnbzGqsMj5dXl-92" value="Shem" style="rounded=1;whiteSpace=wrap;html=1;fillColor=#0050ef;fontColor=light-dark(#000000,#1A1A1A);strokeColor=light-dark(#000000,#242424);glass=0;shadow=0;" parent="1" vertex="1">
          <mxGeometry x="283.5" y="476" width="45" height="23" as="geometry" />
        </mxCell>
        <mxCell id="PMNKibyXnbzGqsMj5dXl-93" value="Japheth" style="rounded=1;whiteSpace=wrap;html=1;fillColor=#0050ef;fontColor=light-dark(#000000,#1A1A1A);strokeColor=light-dark(#000000,#242424);glass=0;shadow=0;" parent="1" vertex="1">
          <mxGeometry x="377.5" y="476" width="60" height="23" as="geometry" />
        </mxCell>
        <mxCell id="PMNKibyXnbzGqsMj5dXl-94" value="" style="endArrow=none;dashed=1;html=1;rounded=0;exitX=0.5;exitY=0;exitDx=0;exitDy=0;strokeColor=light-dark(#000000,#242424);entryX=0.25;entryY=1;entryDx=0;entryDy=0;fontColor=light-dark(#000000,#1A1A1A);" parent="1" source="PMNKibyXnbzGqsMj5dXl-92" target="PMNKibyXnbzGqsMj5dXl-57" edge="1">
          <mxGeometry width="50" height="50" relative="1" as="geometry">
            <mxPoint x="415.5" y="432" as="sourcePoint" />
            <mxPoint x="415.5" y="410" as="targetPoint" />
          </mxGeometry>
        </mxCell>
        <mxCell id="PMNKibyXnbzGqsMj5dXl-95" value="" style="endArrow=none;dashed=1;html=1;rounded=0;exitX=0.5;exitY=0;exitDx=0;exitDy=0;strokeColor=light-dark(#000000,#242424);entryX=0.5;entryY=1;entryDx=0;entryDy=0;fontColor=light-dark(#000000,#1A1A1A);" parent="1" source="PMNKibyXnbzGqsMj5dXl-91" target="PMNKibyXnbzGqsMj5dXl-57" edge="1">
          <mxGeometry width="50" height="50" relative="1" as="geometry">
            <mxPoint x="207.5" y="532" as="sourcePoint" />
            <mxPoint x="322.5" y="460" as="targetPoint" />
          </mxGeometry>
        </mxCell>
        <mxCell id="PMNKibyXnbzGqsMj5dXl-96" value="" style="endArrow=none;dashed=1;html=1;rounded=0;exitX=0.5;exitY=0;exitDx=0;exitDy=0;strokeColor=light-dark(#000000,#242424);entryX=0.75;entryY=1;entryDx=0;entryDy=0;fontColor=light-dark(#000000,#1A1A1A);" parent="1" source="PMNKibyXnbzGqsMj5dXl-93" target="PMNKibyXnbzGqsMj5dXl-57" edge="1">
          <mxGeometry width="50" height="50" relative="1" as="geometry">
            <mxPoint x="260.5" y="532" as="sourcePoint" />
            <mxPoint x="415.5" y="462" as="targetPoint" />
          </mxGeometry>
        </mxCell>
        <mxCell id="PMNKibyXnbzGqsMj5dXl-97" value="1556" style="text;html=1;align=center;verticalAlign=middle;whiteSpace=wrap;rounded=0;strokeColor=none;fontColor=light-dark(#000000,#212121);" parent="1" vertex="1">
          <mxGeometry x="452.5" y="478" width="40" height="20" as="geometry" />
        </mxCell>
        <mxCell id="PMNKibyXnbzGqsMj5dXl-98" value="" style="endArrow=classic;html=1;rounded=0;entryX=0;entryY=0.5;entryDx=0;entryDy=0;exitX=1;exitY=0.5;exitDx=0;exitDy=0;strokeColor=light-dark(#000000,#242424);fontColor=light-dark(#000000,#E8E8E8);" parent="1" source="PMNKibyXnbzGqsMj5dXl-93" target="PMNKibyXnbzGqsMj5dXl-97" edge="1">
          <mxGeometry width="50" height="50" relative="1" as="geometry">
            <mxPoint x="445.5" y="447" as="sourcePoint" />
            <mxPoint x="462.5" y="447" as="targetPoint" />
          </mxGeometry>
        </mxCell>
        <mxCell id="PMNKibyXnbzGqsMj5dXl-99" value="1651" style="text;html=1;align=center;verticalAlign=middle;whiteSpace=wrap;rounded=0;strokeColor=none;fontColor=light-dark(#000000,#212121);" parent="1" vertex="1">
          <mxGeometry x="452.5" y="494" width="40" height="20" as="geometry" />
        </mxCell>
        <mxCell id="PMNKibyXnbzGqsMj5dXl-100" value="1656" style="text;html=1;align=center;verticalAlign=middle;whiteSpace=wrap;rounded=0;strokeColor=none;fontColor=light-dark(#000000,#212121);" parent="1" vertex="1">
          <mxGeometry x="452.5" y="511" width="40" height="20" as="geometry" />
        </mxCell>
        <mxCell id="PMNKibyXnbzGqsMj5dXl-101" value="Lamech" style="rounded=1;whiteSpace=wrap;html=1;fillColor=#e51400;fontColor=light-dark(#000000,#1A1A1A);strokeColor=light-dark(#000000,#242424);align=center;" parent="1" vertex="1">
          <mxGeometry x="512.5" y="494" width="50" height="20" as="geometry" />
        </mxCell>
        <mxCell id="PMNKibyXnbzGqsMj5dXl-102" value="" style="endArrow=classic;html=1;rounded=0;entryX=1;entryY=0.5;entryDx=0;entryDy=0;exitX=0;exitY=0.5;exitDx=0;exitDy=0;strokeColor=light-dark(#000000,#242424);fontColor=light-dark(#000000,#E8E8E8);" parent="1" source="PMNKibyXnbzGqsMj5dXl-101" target="PMNKibyXnbzGqsMj5dXl-99" edge="1">
          <mxGeometry width="50" height="50" relative="1" as="geometry">
            <mxPoint x="522.5" y="456" as="sourcePoint" />
            <mxPoint x="492.5" y="488" as="targetPoint" />
          </mxGeometry>
        </mxCell>
        <mxCell id="PMNKibyXnbzGqsMj5dXl-103" value="Methuselah" style="rounded=1;whiteSpace=wrap;html=1;fillColor=#e51400;fontColor=light-dark(#000000,#1A1A1A);strokeColor=light-dark(#000000,#242424);align=center;" parent="1" vertex="1">
          <mxGeometry x="512.5" y="514" width="70" height="20" as="geometry" />
        </mxCell>
        <mxCell id="PMNKibyXnbzGqsMj5dXl-104" value="" style="endArrow=classic;html=1;rounded=0;entryX=1;entryY=0.5;entryDx=0;entryDy=0;exitX=0;exitY=0.5;exitDx=0;exitDy=0;strokeColor=light-dark(#000000,#242424);fontColor=light-dark(#000000,#E8E8E8);" parent="1" source="PMNKibyXnbzGqsMj5dXl-103" target="PMNKibyXnbzGqsMj5dXl-100" edge="1">
          <mxGeometry width="50" height="50" relative="1" as="geometry">
            <mxPoint x="532.5" y="426" as="sourcePoint" />
            <mxPoint x="502.5" y="458" as="targetPoint" />
          </mxGeometry>
        </mxCell>
        <mxCell id="PMNKibyXnbzGqsMj5dXl-105" value="" style="endArrow=classic;html=1;rounded=0;entryX=0;entryY=0.5;entryDx=0;entryDy=0;exitX=1;exitY=0.5;exitDx=0;exitDy=0;strokeColor=none;fontColor=light-dark(#000000,#212121);" parent="1" source="PMNKibyXnbzGqsMj5dXl-51" target="PMNKibyXnbzGqsMj5dXl-53" edge="1">
          <mxGeometry width="50" height="50" relative="1" as="geometry">
            <mxPoint x="372.5" y="350" as="sourcePoint" />
            <mxPoint x="422.5" y="300" as="targetPoint" />
          </mxGeometry>
        </mxCell>
      </root>
    </mxGraphModel>
  </diagram>
</mxfile>
